<?xml version="1.0" encoding="UTF-8" standalone="no"?>
<!-- Created with Inkscape (http://www.inkscape.org/) -->
<svg
   xmlns:svg="http://www.w3.org/2000/svg"
   xmlns="http://www.w3.org/2000/svg"
   version="1.0"
   width="708.66693"
   height="511.2981"
   id="svg2433"
   xml:space="preserve"><defs
     id="defs2436" /><g
     transform="matrix(1.25,0,0,-1.25,-25.411521,643.47256)"
     id="g2442"><path
       d="M 62.103185,479.83405 L 62.103185,476.37805 L 584.55222,331.93645 C 588.62262,330.81325 587.88822,320.40445 583.82022,319.29085 L 62.078945,175.66957 L 62.072225,110.75821 C 62.072225,107.99725 59.394785,105.73957 56.122145,105.73957 L 56.122145,105.73957 C 52.842545,105.73957 50.168945,107.99725 50.168945,110.75821 L 50.200865,476.14045 C 48.972545,476.00845 47.710865,475.92925 46.431185,475.92925 C 45.164465,475.92925 43.930865,476.00125 42.713825,476.13325 L 42.682145,110.75821 C 42.682145,107.99725 40.004465,105.73957 36.732545,105.73957 L 36.732545,105.73957 C 33.453185,105.73957 30.778625,107.99725 30.778625,110.75821 L 30.810545,479.80525 C 24.450473,483.34525 20.329217,488.99005 20.329217,495.35245 C 20.329217,506.08045 32.017025,514.77805 46.431185,514.77805 C 60.847985,514.77805 72.535745,506.08045 72.535745,495.35245 C 72.535745,489.00445 68.432225,483.37645 62.103185,479.83405 z M 62.082545,240.01213 L 469.37382,351.42685 L 562.25862,325.72765 L 62.078945,187.70149 L 62.082545,240.01213 z M 209.03382,423.46765 L 62.096705,383.38765 L 62.103185,464.12605 L 209.03382,423.46765 z M 46.433825,502.85005 C 54.264785,502.85005 60.611825,499.49485 60.611825,495.35245 C 60.611825,491.21245 54.264785,487.85725 46.433825,487.85725 C 38.606705,487.85725 32.260865,491.21245 32.260865,495.35245 C 32.260865,499.49485 38.606705,502.85005 46.433825,502.85005"
       id="path2448"
       style="fill:#3c7ec5;fill-opacity:1;fill-rule:evenodd;stroke:none" /><path
       d="M 163.94958,369.05485 L 163.91862,355.76125 L 178.16958,359.50525 L 178.17222,350.45485 L 163.91118,346.33405 L 163.94862,314.18365 L 167.36958,311.15005 L 174.18318,316.77805 L 176.14542,314.36845 C 169.10214,306.26605 163.2051,297.33085 159.56118,291.39085 C 155.31414,295.71805 151.02054,298.76365 142.57254,301.02445 C 145.96638,303.45565 149.60214,305.24605 149.04054,309.05725 L 149.0451,342.63085 L 142.4835,341.03005 L 142.48734,348.02365 C 152.7051,350.55085 154.50222,357.46045 156.56862,367.34365 L 163.94958,369.05485"
       id="path2450"
       style="fill:#ffffff;fill-opacity:1;fill-rule:evenodd;stroke:none" /><path
       d="M 251.54022,368.46445 L 263.18022,384.53245 L 272.13222,367.64125 L 261.67302,353.10445 L 255.07062,364.40605 L 251.53542,360.64765 L 251.57382,332.73565 L 253.58022,330.57085 C 256.92342,333.17005 261.04902,338.40205 265.53702,341.62045 L 268.24182,339.20365 C 260.06742,330.40285 252.00822,321.74845 248.30502,315.11005 C 242.56446,319.43725 238.27086,322.67245 230.19606,324.93325 C 233.5899,327.36445 237.22542,329.15245 236.66382,332.96365 L 236.66862,359.81725 L 235.02054,362.31085 L 228.98862,356.91085 L 226.56606,359.60605 L 244.00182,381.16525 L 251.54022,368.46445"
       id="path2452"
       style="fill:#ffffff;fill-opacity:1;fill-rule:evenodd;stroke:none" /><path
       d="M 292.96182,404.16685 L 292.92822,391.24765 L 312.39942,396.11245 L 312.40182,387.06205 L 292.92342,381.82045 L 292.95702,349.66765 L 296.30502,346.67725 C 300.56502,352.60765 319.41942,371.32765 334.70502,372.06445 C 348.95382,372.75085 355.43142,367.47805 356.85222,359.39725 C 345.33702,364.80685 342.68502,364.97965 331.25862,364.42045 C 319.82982,363.86365 303.37062,354.80605 288.57222,326.87725 C 284.32662,331.20445 280.03062,334.25245 271.58502,336.51085 C 274.97862,338.94205 278.61222,340.73245 278.05062,344.54365 L 278.05542,378.11725 L 271.49382,376.51885 L 271.49862,383.51245 C 281.71542,386.03725 282.95862,393.12925 284.08902,402.08365 L 292.96182,404.16685"
       id="path2454"
       style="fill:#ffffff;fill-opacity:1;fill-rule:evenodd;stroke:none" /><path
       d="M 203.62542,368.42605 C 209.09214,362.88445 216.92862,360.38125 222.74478,362.34685 C 221.78214,357.84205 220.2015,354.42445 217.25766,353.40445 L 217.15446,321.89485 C 219.2199,322.34125 223.33734,324.34045 225.71118,324.53725 L 225.75414,320.66845 C 221.1867,318.21325 214.37574,308.98765 211.43022,303.83725 L 203.13798,314.72365 C 197.93766,311.51965 192.74118,304.38925 189.21606,298.94605 L 180.6051,305.32285 L 180.60894,347.76205 C 186.40926,350.55085 201.27414,362.43565 203.62542,368.42605 z M 203.41446,318.60205 L 203.20086,350.44285 C 200.52054,350.11165 198.49926,350.16925 195.68118,351.54205 L 193.4115,349.54285 L 193.44798,318.76525 L 196.3899,316.49725 C 197.55798,316.79005 200.90118,318.14605 203.41446,318.60205"
       id="path2456"
       style="fill:#ffffff;fill-opacity:1;fill-rule:evenodd;stroke:none" /><path
       d="M 86.929265,343.93885 C 90.355745,341.95405 94.724465,340.16365 103.79286,340.33885 C 114.5751,340.49725 123.25542,339.68365 129.5115,336.53005 C 137.57214,332.46925 140.4267,325.52845 140.5851,318.29485 C 140.8851,304.48525 130.37118,288.60925 120.57414,282.67405 C 114.96414,279.27325 106.68702,274.03165 95.215745,274.03165 C 81.434465,274.03165 76.770545,276.91165 73.328945,281.09245 C 70.845425,284.11405 68.754785,289.29805 68.856065,294.31645 C 69.131825,308.05885 78.420545,314.99245 90.841505,314.99245 C 97.162145,314.99245 106.47054,310.58605 108.18798,303.48685 C 108.3315,302.89405 107.99766,302.42365 107.54022,302.42365 C 106.17054,302.42365 105.15798,303.52525 103.69446,304.72525 C 96.460865,310.66525 81.777665,306.72445 82.246385,295.04605 C 82.601825,286.19485 90.526385,281.41885 99.315425,281.41885 C 105.65022,281.41885 111.40182,283.56445 116.9715,287.62525 C 119.4783,289.45405 124.78254,296.80045 125.07222,304.77565 C 125.51382,316.92205 112.09182,323.88445 101.62926,323.88445 C 95.366705,323.88445 85.004465,325.76125 79.193825,331.99405 C 77.257025,334.07245 74.335745,336.63325 74.227025,339.77005 C 74.097665,343.48765 75.126065,346.91005 76.999265,351.46525 L 83.761505,367.92445 C 84.753185,370.33645 86.545745,371.55565 88.195745,371.55565 C 90.763505,371.55565 94.558625,370.84765 100.03638,370.84765 C 107.65542,370.84765 115.4751,372.16045 122.5299,375.16525 C 128.35086,377.64445 131.6415,381.23245 133.6383,381.23245 C 134.15214,381.23245 134.80086,380.06365 134.70894,379.41565 C 134.0499,371.93005 130.88574,365.54845 123.82086,360.62125 C 120.39318,358.23085 113.7951,355.96285 108.94542,356.36125 C 104.6667,356.71165 98.358305,358.18765 94.419905,358.18765 C 91.522865,358.18765 89.609585,357.11725 88.047665,355.68685 C 86.681825,354.43405 85.947665,352.55005 85.165745,350.98525 C 83.863505,348.37405 83.414465,345.97405 86.929265,343.93885"
       id="path2458"
       style="fill:#ffffff;fill-opacity:1;fill-rule:evenodd;stroke:none" /></g></svg>